<svg width="20" height="20" viewBox="0 0 20 20" fill="none" xmlns="http://www.w3.org/2000/svg">
<path d="M13.3421 10.6384C14.2288 9.94458 14.876 8.99317 15.1937 7.91651C15.5114 6.83985 15.4837 5.69148 15.1146 4.63117C14.7455 3.57087 14.0532 2.65135 13.1341 2.00054C12.215 1.34973 11.1148 1 9.98659 1C8.85834 1 7.75814 1.34973 6.83906 2.00054C5.91997 2.65135 5.22771 3.57087 4.85858 4.63117C4.48945 5.69148 4.4618 6.83985 4.77948 7.91651C5.09717 8.99317 5.74439 9.94458 6.6311 10.6384C5.1117 11.2438 3.78598 12.2479 2.79525 13.5436C1.80453 14.8394 1.18595 16.3783 1.00546 17.9961C0.99239 18.1143 1.00285 18.2338 1.03623 18.3479C1.06961 18.462 1.12526 18.5684 1.20001 18.6612C1.35097 18.8484 1.57054 18.9683 1.81041 18.9946C2.05028 19.0208 2.29082 18.9512 2.47909 18.8011C2.66736 18.651 2.78796 18.4326 2.81434 18.194C3.01295 16.4357 3.85598 14.8118 5.18238 13.6326C6.50877 12.4533 8.22554 11.8014 10.0047 11.8014C11.7838 11.8014 13.5006 12.4533 14.827 13.6326C16.1534 14.8118 16.9964 16.4357 17.195 18.194C17.2196 18.4151 17.3256 18.6192 17.4927 18.767C17.6597 18.9149 17.8759 18.9959 18.0994 18.9946H18.1989C18.436 18.9674 18.6527 18.8482 18.8018 18.6629C18.9509 18.4776 19.0203 18.2411 18.9948 18.0051C18.8135 16.3827 18.1916 14.8399 17.1958 13.5421C16.2 12.2443 14.8678 11.2406 13.3421 10.6384ZM9.98659 9.99976C9.27106 9.99976 8.5716 9.78874 7.97666 9.3934C7.38172 8.99805 6.91802 8.43613 6.6442 7.7787C6.37037 7.12126 6.29873 6.39784 6.43832 5.69991C6.57792 5.00198 6.92248 4.36089 7.42843 3.85771C7.93439 3.35454 8.57901 3.01187 9.28079 2.87304C9.98257 2.73421 10.71 2.80546 11.371 3.07778C12.0321 3.3501 12.5971 3.81126 12.9947 4.40293C13.3922 4.99461 13.6044 5.69023 13.6044 6.40183C13.6044 7.35606 13.2232 8.27121 12.5447 8.94595C11.8663 9.62069 10.9461 9.99976 9.98659 9.99976Z" fill="#232323"/>
</svg>
