<svg viewBox="0 0 20 20" fill="none" xmlns="http://www.w3.org/2000/svg">
<g clip-path="url(#clip0_1422_1067)">
<mask id="mask0_1422_1067" style="mask-type:luminance" maskUnits="userSpaceOnUse" x="0" y="0" width="20" height="20">
<path d="M20 0H0V20H20V0Z" fill="white"/>
</mask>
<g mask="url(#mask0_1422_1067)">
<path d="M16.6667 3.33335H14.1667V1.66669H12.5V3.33335H7.5V1.66669H5.83334V3.33335H3.33334C2.41417 3.33335 1.66667 4.08085 1.66667 5.00002V16.6667C1.66667 17.5859 2.41417 18.3334 3.33334 18.3334H16.6667C17.5858 18.3334 18.3333 17.5859 18.3333 16.6667V5.00002C18.3333 4.08085 17.5858 3.33335 16.6667 3.33335ZM3.33334 16.6667V6.25002H16.6663L16.6642 16.6667H3.33334Z" fill="#232323"/>
<path d="M6.66668 10.8334C7.12693 10.8334 7.50001 10.4603 7.50001 10C7.50001 9.53977 7.12693 9.16669 6.66668 9.16669C6.20643 9.16669 5.83334 9.53977 5.83334 10C5.83334 10.4603 6.20643 10.8334 6.66668 10.8334Z" fill="#232323"/>
<path d="M10 10.8334C10.4603 10.8334 10.8333 10.4603 10.8333 10C10.8333 9.53977 10.4603 9.16669 10 9.16669C9.53976 9.16669 9.16667 9.53977 9.16667 10C9.16667 10.4603 9.53976 10.8334 10 10.8334Z" fill="#232323"/>
<path d="M13.3333 10.8334C13.7936 10.8334 14.1667 10.4603 14.1667 10C14.1667 9.53977 13.7936 9.16669 13.3333 9.16669C12.8731 9.16669 12.5 9.53977 12.5 10C12.5 10.4603 12.8731 10.8334 13.3333 10.8334Z" fill="#232323"/>
<path d="M6.66668 14.1667C7.12693 14.1667 7.50001 13.7936 7.50001 13.3333C7.50001 12.8731 7.12693 12.5 6.66668 12.5C6.20643 12.5 5.83334 12.8731 5.83334 13.3333C5.83334 13.7936 6.20643 14.1667 6.66668 14.1667Z" fill="#232323"/>
<path d="M10 14.1667C10.4603 14.1667 10.8333 13.7936 10.8333 13.3333C10.8333 12.8731 10.4603 12.5 10 12.5C9.53976 12.5 9.16667 12.8731 9.16667 13.3333C9.16667 13.7936 9.53976 14.1667 10 14.1667Z" fill="#232323"/>
<path d="M13.3333 14.1667C13.7936 14.1667 14.1667 13.7936 14.1667 13.3333C14.1667 12.8731 13.7936 12.5 13.3333 12.5C12.8731 12.5 12.5 12.8731 12.5 13.3333C12.5 13.7936 12.8731 14.1667 13.3333 14.1667Z" fill="#232323"/>
</g>
</g>
<defs>
<clipPath id="clip0_1422_1067">
<rect width="20" height="20" fill="white"/>
</clipPath>
</defs>
</svg>
